<svg width="173" height="40" viewBox="0 0 173 40" fill="none" xmlns="http://www.w3.org/2000/svg">
<path d="M62.3823 32.1421C60.1531 32.1421 58.0772 31.7381 56.1545 30.93C54.2597 30.1219 52.6017 28.9934 51.1806 27.5444C49.7595 26.0954 48.6449 24.3957 47.8368 22.4451C47.0566 20.4946 46.6665 18.3629 46.6665 16.0502C46.6665 13.7374 47.0566 11.6057 47.8368 9.65517C48.617 7.67677 49.7177 5.97701 51.1388 4.5559C52.5599 3.10693 54.2179 1.99234 56.1127 1.21212C58.0354 0.40404 60.1252 0 62.3823 0C64.6393 0 66.6595 0.376176 68.4429 1.12853C70.2541 1.88088 71.7867 2.88401 73.0406 4.13793C74.2945 5.39185 75.1862 6.78509 75.7156 8.31766L69.9894 11.0763C69.46 9.57158 68.5265 8.33159 67.189 7.35632C65.8793 6.35319 64.2771 5.85162 62.3823 5.85162C60.5432 5.85162 58.927 6.28352 57.5338 7.14734C56.1406 8.01115 55.0538 9.20934 54.2736 10.7419C53.5213 12.2466 53.1451 14.016 53.1451 16.0502C53.1451 18.0843 53.5213 19.8676 54.2736 21.4002C55.0538 22.9328 56.1406 24.131 57.5338 24.9948C58.927 25.8586 60.5432 26.2905 62.3823 26.2905C64.2771 26.2905 65.8793 25.8029 67.189 24.8276C68.5265 23.8245 69.46 22.5705 69.9894 21.0658L75.7156 23.8245C75.1862 25.357 74.2945 26.7503 73.0406 28.0042C71.7867 29.2581 70.2541 30.2612 68.4429 31.0136C66.6595 31.7659 64.6393 32.1421 62.3823 32.1421Z" fill="white"/>
<path d="M78.5771 31.6405V0H84.8467V31.6405H78.5771Z" fill="white"/>
<path d="M88.5986 31.6405V8.81923H94.8682V31.6405H88.5986ZM88.5986 6.77116V0.501566H94.8682V6.77116H88.5986Z" fill="white"/>
<path d="M98.6202 40V8.81923H104.472V13.1661L103.928 11.9122C104.681 10.7698 105.698 9.89202 106.98 9.279C108.289 8.63811 109.78 8.31766 111.452 8.31766C113.625 8.31766 115.59 8.84709 117.345 9.90596C119.101 10.9648 120.494 12.3999 121.525 14.2111C122.556 15.9944 123.072 18.0007 123.072 20.2299C123.072 22.4312 122.556 24.4375 121.525 26.2487C120.522 28.0599 119.143 29.4949 117.387 30.5538C115.632 31.6127 113.639 32.1421 111.41 32.1421C109.85 32.1421 108.401 31.8635 107.063 31.3062C105.754 30.721 104.695 29.8711 103.887 28.7565L104.89 27.4608V40H98.6202ZM110.658 26.4995C111.828 26.4995 112.859 26.2348 113.751 25.7053C114.642 25.1759 115.339 24.4375 115.841 23.4901C116.342 22.5427 116.593 21.4559 116.593 20.2299C116.593 19.0038 116.342 17.931 115.841 17.0115C115.339 16.0641 114.642 15.3257 113.751 14.7962C112.859 14.2389 111.828 13.9603 110.658 13.9603C109.543 13.9603 108.54 14.225 107.648 14.7544C106.785 15.2839 106.102 16.0223 105.6 16.9697C105.127 17.9171 104.89 19.0038 104.89 20.2299C104.89 21.4559 105.127 22.5427 105.6 23.4901C106.102 24.4375 106.785 25.1759 107.648 25.7053C108.54 26.2348 109.543 26.4995 110.658 26.4995Z" fill="white"/>
<path d="M125.908 40V8.81923H131.759V13.1661L131.216 11.9122C131.968 10.7698 132.985 9.89202 134.267 9.279C135.577 8.63811 137.067 8.31766 138.739 8.31766C140.913 8.31766 142.877 8.84709 144.633 9.90596C146.388 10.9648 147.782 12.3999 148.813 14.2111C149.844 15.9944 150.359 18.0007 150.359 20.2299C150.359 22.4312 149.844 24.4375 148.813 26.2487C147.809 28.0599 146.43 29.4949 144.675 30.5538C142.919 31.6127 140.927 32.1421 138.698 32.1421C137.137 32.1421 135.688 31.8635 134.351 31.3062C133.041 30.721 131.982 29.8711 131.174 28.7565L132.177 27.4608V40H125.908ZM137.945 26.4995C139.116 26.4995 140.147 26.2348 141.038 25.7053C141.93 25.1759 142.627 24.4375 143.128 23.4901C143.63 22.5427 143.88 21.4559 143.88 20.2299C143.88 19.0038 143.63 17.931 143.128 17.0115C142.627 16.0641 141.93 15.3257 141.038 14.7962C140.147 14.2389 139.116 13.9603 137.945 13.9603C136.831 13.9603 135.828 14.225 134.936 14.7544C134.072 15.2839 133.389 16.0223 132.888 16.9697C132.414 17.9171 132.177 19.0038 132.177 20.2299C132.177 21.4559 132.414 22.5427 132.888 23.4901C133.389 24.4375 134.072 25.1759 134.936 25.7053C135.828 26.2348 136.831 26.4995 137.945 26.4995Z" fill="white"/>
<path d="M160.259 32.1421C158.615 32.1421 157.194 31.8774 155.995 31.348C154.797 30.8185 153.878 30.0662 153.237 29.0909C152.596 28.0878 152.275 26.9035 152.275 25.5381C152.275 24.2564 152.568 23.1278 153.153 22.1526C153.738 21.1494 154.63 20.3135 155.828 19.6447C157.054 18.976 158.573 18.5023 160.384 18.2236L167.364 17.0951V21.6928L161.513 22.7377C160.621 22.9049 159.938 23.1975 159.465 23.6155C158.991 24.0056 158.754 24.5768 158.754 25.3292C158.754 26.0258 159.019 26.5691 159.548 26.9592C160.078 27.3494 160.732 27.5444 161.513 27.5444C162.544 27.5444 163.449 27.3215 164.23 26.8757C165.01 26.4298 165.609 25.8307 166.027 25.0784C166.473 24.2982 166.696 23.4483 166.696 22.5287V16.5935C166.696 15.7297 166.347 15.0052 165.651 14.4201C164.982 13.8349 164.062 13.5423 162.892 13.5423C161.777 13.5423 160.788 13.8488 159.924 14.4619C159.088 15.0749 158.475 15.883 158.085 16.8861L153.07 14.5037C153.515 13.2219 154.226 12.1212 155.201 11.2017C156.177 10.2821 157.347 9.57158 158.712 9.07001C160.078 8.56844 161.568 8.31766 163.185 8.31766C165.107 8.31766 166.807 8.66597 168.284 9.36259C169.761 10.0592 170.903 11.0345 171.711 12.2884C172.547 13.5145 172.965 14.9495 172.965 16.5935V31.6405H167.114V27.9624L168.535 27.7116C167.866 28.7147 167.127 29.5507 166.319 30.2194C165.511 30.8603 164.606 31.334 163.603 31.6405C162.599 31.9749 161.485 32.1421 160.259 32.1421Z" fill="white"/>
<path d="M6.64062 0H1.17188C0.524687 0 0 0.524687 0 1.17188V6.64062C0 7.28781 0.524687 7.8125 1.17188 7.8125C1.81906 7.8125 2.34375 7.28781 2.34375 6.64062V2.34375H6.64062C7.28781 2.34375 7.8125 1.81906 7.8125 1.17188C7.8125 0.524687 7.28781 0 6.64062 0Z" fill="white"/>
<path d="M38.8281 32.1875C38.1809 32.1875 37.6562 32.7122 37.6562 33.3594V37.6562H33.3594C32.7122 37.6562 32.1875 38.1809 32.1875 38.8281C32.1875 39.4753 32.7122 40 33.3594 40H38.8281C39.4753 40 40 39.4753 40 38.8281V33.3594C40 32.7122 39.4753 32.1875 38.8281 32.1875Z" fill="white"/>
<path d="M33.2922 35.2344H7.10938V38.8282C7.10938 39.475 6.58438 40 5.9375 40C5.29063 40 4.76563 39.475 4.76563 38.8282V35.2344H1.17188C0.525 35.2344 0 34.7094 0 34.0625C0 33.4157 0.525 32.8907 1.17188 32.8907H4.76563V32.8891L18.1477 18.3469L33.2922 35.2344Z" fill="white"/>
<path d="M27.814 25.6156L35.2343 17.1687V33.8898L27.814 25.6156Z" fill="white"/>
<path d="M25.9375 14.4531C26.7142 14.4531 27.3438 13.8235 27.3438 13.0469C27.3438 12.2702 26.7142 11.6406 25.9375 11.6406C25.1608 11.6406 24.5312 12.2702 24.5312 13.0469C24.5312 13.8235 25.1608 14.4531 25.9375 14.4531Z" fill="white"/>
<path d="M38.8281 4.76562H35.2344V1.17188C35.2344 0.525 34.7094 0 34.0625 0C33.4156 0 32.8906 0.525 32.8906 1.17188V4.76562H5.9375C5.29063 4.76562 4.76562 5.29063 4.76562 5.9375V29.4289L17.2898 15.818C17.735 15.303 18.5985 15.3106 19.0375 15.8281L26.2383 23.8578L35.2344 13.6172V7.10938H38.8281C39.475 7.10938 40 6.58437 40 5.9375C40 5.29063 39.475 4.76562 38.8281 4.76562ZM25.9375 16.7969C23.8695 16.7969 22.1875 15.1148 22.1875 13.0469C22.1875 10.9789 23.8695 9.29688 25.9375 9.29688C28.0055 9.29688 29.6875 10.9789 29.6875 13.0469C29.6875 15.1148 28.0055 16.7969 25.9375 16.7969Z" fill="white"/>
</svg>
