<svg width="173" height="40" viewBox="0 0 173 40" fill="none" xmlns="http://www.w3.org/2000/svg">
<path d="M62.3828 32.1421C60.1536 32.1421 58.0776 31.7381 56.155 30.93C54.2602 30.1219 52.6022 28.9934 51.1811 27.5444C49.76 26.0954 48.6454 24.3957 47.8373 22.4451C47.0571 20.4946 46.667 18.3629 46.667 16.0502C46.667 13.7374 47.0571 11.6057 47.8373 9.65517C48.6175 7.67677 49.7182 5.97701 51.1393 4.5559C52.5604 3.10693 54.2184 1.99234 56.1132 1.21212C58.0359 0.40404 60.1257 0 62.3828 0C64.6398 0 66.66 0.376176 68.4434 1.12853C70.2546 1.88088 71.7872 2.88401 73.0411 4.13793C74.295 5.39185 75.1867 6.78509 75.7161 8.31766L69.9899 11.0763C69.4604 9.57158 68.527 8.33159 67.1895 7.35632C65.8798 6.35319 64.2776 5.85162 62.3828 5.85162C60.5437 5.85162 58.9275 6.28352 57.5343 7.14734C56.141 8.01115 55.0543 9.20934 54.2741 10.7419C53.5217 12.2466 53.1456 14.016 53.1456 16.0502C53.1456 18.0843 53.5217 19.8676 54.2741 21.4002C55.0543 22.9328 56.141 24.131 57.5343 24.9948C58.9275 25.8586 60.5437 26.2905 62.3828 26.2905C64.2776 26.2905 65.8798 25.8029 67.1895 24.8276C68.527 23.8245 69.4604 22.5705 69.9899 21.0658L75.7161 23.8245C75.1867 25.357 74.295 26.7503 73.0411 28.0042C71.7872 29.2581 70.2546 30.2612 68.4434 31.0136C66.66 31.7659 64.6398 32.1421 62.3828 32.1421Z" fill="#181818"/>
<path d="M78.5776 31.6405V0H84.8472V31.6405H78.5776Z" fill="#181818"/>
<path d="M88.5991 31.6405V8.81923H94.8687V31.6405H88.5991ZM88.5991 6.77116V0.501566H94.8687V6.77116H88.5991Z" fill="#181818"/>
<path d="M98.6207 40V8.81923H104.472V13.1661L103.929 11.9122C104.681 10.7698 105.698 9.89202 106.98 9.279C108.29 8.63811 109.781 8.31766 111.452 8.31766C113.626 8.31766 115.59 8.84709 117.346 9.90596C119.101 10.9648 120.495 12.3999 121.526 14.2111C122.557 15.9944 123.072 18.0007 123.072 20.2299C123.072 22.4312 122.557 24.4375 121.526 26.2487C120.522 28.0599 119.143 29.4949 117.388 30.5538C115.632 31.6127 113.64 32.1421 111.411 32.1421C109.85 32.1421 108.401 31.8635 107.064 31.3062C105.754 30.721 104.695 29.8711 103.887 28.7565L104.89 27.4608V40H98.6207ZM110.658 26.4995C111.829 26.4995 112.86 26.2348 113.751 25.7053C114.643 25.1759 115.34 24.4375 115.841 23.4901C116.343 22.5427 116.594 21.4559 116.594 20.2299C116.594 19.0038 116.343 17.931 115.841 17.0115C115.34 16.0641 114.643 15.3257 113.751 14.7962C112.86 14.2389 111.829 13.9603 110.658 13.9603C109.544 13.9603 108.541 14.225 107.649 14.7544C106.785 15.2839 106.102 16.0223 105.601 16.9697C105.127 17.9171 104.89 19.0038 104.89 20.2299C104.89 21.4559 105.127 22.5427 105.601 23.4901C106.102 24.4375 106.785 25.1759 107.649 25.7053C108.541 26.2348 109.544 26.4995 110.658 26.4995Z" fill="#181818"/>
<path d="M125.908 40V8.81923H131.76V13.1661L131.216 11.9122C131.969 10.7698 132.986 9.89202 134.268 9.279C135.577 8.63811 137.068 8.31766 138.74 8.31766C140.913 8.31766 142.878 8.84709 144.633 9.90596C146.389 10.9648 147.782 12.3999 148.813 14.2111C149.844 15.9944 150.36 18.0007 150.36 20.2299C150.36 22.4312 149.844 24.4375 148.813 26.2487C147.81 28.0599 146.431 29.4949 144.675 30.5538C142.92 31.6127 140.927 32.1421 138.698 32.1421C137.138 32.1421 135.689 31.8635 134.351 31.3062C133.042 30.721 131.983 29.8711 131.175 28.7565L132.178 27.4608V40H125.908ZM137.946 26.4995C139.116 26.4995 140.147 26.2348 141.039 25.7053C141.93 25.1759 142.627 24.4375 143.129 23.4901C143.63 22.5427 143.881 21.4559 143.881 20.2299C143.881 19.0038 143.63 17.931 143.129 17.0115C142.627 16.0641 141.93 15.3257 141.039 14.7962C140.147 14.2389 139.116 13.9603 137.946 13.9603C136.831 13.9603 135.828 14.225 134.936 14.7544C134.073 15.2839 133.39 16.0223 132.888 16.9697C132.415 17.9171 132.178 19.0038 132.178 20.2299C132.178 21.4559 132.415 22.5427 132.888 23.4901C133.39 24.4375 134.073 25.1759 134.936 25.7053C135.828 26.2348 136.831 26.4995 137.946 26.4995Z" fill="#181818"/>
<path d="M160.259 32.1421C158.615 32.1421 157.194 31.8774 155.996 31.348C154.798 30.8185 153.878 30.0662 153.237 29.0909C152.596 28.0878 152.276 26.9035 152.276 25.5381C152.276 24.2564 152.569 23.1278 153.154 22.1526C153.739 21.1494 154.631 20.3135 155.829 19.6447C157.055 18.976 158.573 18.5023 160.385 18.2236L167.365 17.0951V21.6928L161.513 22.7377C160.622 22.9049 159.939 23.1975 159.465 23.6155C158.991 24.0056 158.755 24.5768 158.755 25.3292C158.755 26.0258 159.019 26.5691 159.549 26.9592C160.078 27.3494 160.733 27.5444 161.513 27.5444C162.544 27.5444 163.45 27.3215 164.23 26.8757C165.01 26.4298 165.609 25.8307 166.027 25.0784C166.473 24.2982 166.696 23.4483 166.696 22.5287V16.5935C166.696 15.7297 166.348 15.0052 165.651 14.4201C164.982 13.8349 164.063 13.5423 162.892 13.5423C161.778 13.5423 160.789 13.8488 159.925 14.4619C159.089 15.0749 158.476 15.883 158.086 16.8861L153.07 14.5037C153.516 13.2219 154.227 12.1212 155.202 11.2017C156.177 10.2821 157.347 9.57158 158.713 9.07001C160.078 8.56844 161.569 8.31766 163.185 8.31766C165.108 8.31766 166.808 8.66597 168.284 9.36259C169.761 10.0592 170.904 11.0345 171.712 12.2884C172.548 13.5145 172.966 14.9495 172.966 16.5935V31.6405H167.114V27.9624L168.535 27.7116C167.866 28.7147 167.128 29.5507 166.32 30.2194C165.512 30.8603 164.606 31.334 163.603 31.6405C162.6 31.9749 161.485 32.1421 160.259 32.1421Z" fill="#181818"/>
<path d="M6.64062 0H1.17187C0.524687 0 0 0.524687 0 1.17188V6.64062C0 7.28781 0.524687 7.8125 1.17187 7.8125C1.81906 7.8125 2.34375 7.28781 2.34375 6.64062V2.34375H6.64062C7.28781 2.34375 7.8125 1.81906 7.8125 1.17188C7.8125 0.524687 7.28781 0 6.64062 0Z" fill="#E74545"/>
<path d="M38.8281 32.1875C38.1809 32.1875 37.6562 32.7122 37.6562 33.3594V37.6562H33.3594C32.7122 37.6562 32.1875 38.1809 32.1875 38.8281C32.1875 39.4753 32.7122 40 33.3594 40H38.8281C39.4753 40 40 39.4753 40 38.8281V33.3594C40 32.7122 39.4753 32.1875 38.8281 32.1875Z" fill="#E74545"/>
<path d="M33.2922 35.2344H7.10937V38.8282C7.10937 39.475 6.58437 40 5.9375 40C5.29062 40 4.76562 39.475 4.76562 38.8282V35.2344H1.17187C0.525 35.2344 0 34.7094 0 34.0625C0 33.4157 0.525 32.8907 1.17187 32.8907H4.76562V32.8891L18.1477 18.3469L33.2922 35.2344Z" fill="#E74545"/>
<path d="M27.814 25.6156L35.2343 17.1687V33.8898L27.814 25.6156Z" fill="#E74545"/>
<path d="M25.9375 14.4531C26.7142 14.4531 27.3438 13.8235 27.3438 13.0469C27.3438 12.2702 26.7142 11.6406 25.9375 11.6406C25.1608 11.6406 24.5312 12.2702 24.5312 13.0469C24.5312 13.8235 25.1608 14.4531 25.9375 14.4531Z" fill="#E74545"/>
<path d="M38.8281 4.76562H35.2344V1.17188C35.2344 0.525 34.7094 0 34.0625 0C33.4156 0 32.8906 0.525 32.8906 1.17188V4.76562H5.9375C5.29063 4.76562 4.76562 5.29063 4.76562 5.9375V29.4289L17.2898 15.818C17.735 15.303 18.5985 15.3106 19.0375 15.8281L26.2383 23.8578L35.2344 13.6172V7.10938H38.8281C39.475 7.10938 40 6.58437 40 5.9375C40 5.29063 39.475 4.76562 38.8281 4.76562ZM25.9375 16.7969C23.8695 16.7969 22.1875 15.1148 22.1875 13.0469C22.1875 10.9789 23.8695 9.29688 25.9375 9.29688C28.0055 9.29688 29.6875 10.9789 29.6875 13.0469C29.6875 15.1148 28.0055 16.7969 25.9375 16.7969Z" fill="#E74545"/>
</svg>
